<svg xmlns="http://www.w3.org/2000/svg" viewBox="0 0 420 172" width="420" height="172" role="img" aria-label="Data &amp; Big Data: Hadoop, Hive, HDFS, YARN, ZooKeeper, ETL, Data Warehousing, Dimensional Modeling"><defs><linearGradient id="g" x1="0" y1="0" x2="1" y2="1"><stop offset="0" stop-color="#ffffff"/><stop offset="1" stop-color="#ecfdf9"/></linearGradient><clipPath id="c"><rect x="1" y="1" width="414" height="166" rx="14"/></clipPath><pattern id="dp" width="12" height="12" patternUnits="userSpaceOnUse"><circle cx="2" cy="2" r="1.4" fill="#14b8a6"/></pattern></defs><rect x="4" y="5" width="414" height="166" rx="14" fill="#dfe5ee"/><rect x="1" y="1" width="414" height="166" rx="14" fill="url(#g)" stroke="#d0d7de" stroke-width="1.5"/><g clip-path="url(#c)"><rect x="290" y="102" width="130" height="70" fill="url(#dp)" opacity="0.18"/><rect x="1" y="14" width="5" height="138" rx="2.5" fill="#14b8a6"/><rect x="20" y="1" width="110" height="3.5" rx="1.75" fill="#14b8a6"><animate attributeName="x" values="20;285;20" dur="7s" repeatCount="indefinite"/></rect></g><text x="24" y="40" font-family="'Segoe UI', -apple-system, 'Helvetica Neue', Arial, sans-serif" font-size="17" font-weight="700" fill="#1f2328">Data &amp; Big Data</text><circle cx="378" cy="34" r="13" fill="#14b8a6" opacity="0.14"/><text x="378" y="39" text-anchor="middle" font-family="'Segoe UI', -apple-system, 'Helvetica Neue', Arial, sans-serif" font-size="13" font-weight="700" fill="#14b8a6">8</text><rect x="24" y="60" width="82.2" height="26" rx="13" fill="#ffffff" stroke="#14b8a6" stroke-opacity="0.35"/><circle cx="39" cy="73" r="5" fill="#66CCFF" stroke="#00000022" stroke-width="0.6"/><text x="50" y="77.5" font-family="'Segoe UI', -apple-system, 'Helvetica Neue', Arial, sans-serif" font-size="12" font-weight="600" fill="#1f2328">Hadoop</text><rect x="112.2" y="60" width="66.8" height="26" rx="13" fill="#ffffff" stroke="#14b8a6" stroke-opacity="0.35"/><circle cx="127.2" cy="73" r="5" fill="#FDEE21" stroke="#00000022" stroke-width="0.6"/><text x="138.2" y="77.5" font-family="'Segoe UI', -apple-system, 'Helvetica Neue', Arial, sans-serif" font-size="12" font-weight="600" fill="#1f2328">Hive</text><rect x="185.0" y="60" width="66.8" height="26" rx="13" fill="#ffffff" stroke="#14b8a6" stroke-opacity="0.35"/><circle cx="200.0" cy="73" r="5" fill="#8b9bb4" stroke="#00000022" stroke-width="0.6"/><text x="211.0" y="77.5" font-family="'Segoe UI', -apple-system, 'Helvetica Neue', Arial, sans-serif" font-size="12" font-weight="600" fill="#1f2328">HDFS</text><rect x="257.8" y="60" width="66.8" height="26" rx="13" fill="#ffffff" stroke="#14b8a6" stroke-opacity="0.35"/><circle cx="272.8" cy="73" r="5" fill="#8b9bb4" stroke="#00000022" stroke-width="0.6"/><text x="283.8" y="77.5" font-family="'Segoe UI', -apple-system, 'Helvetica Neue', Arial, sans-serif" font-size="12" font-weight="600" fill="#1f2328">YARN</text><rect x="24" y="92" width="105.3" height="26" rx="13" fill="#ffffff" stroke="#14b8a6" stroke-opacity="0.35"/><circle cx="39" cy="105" r="5" fill="#8b9bb4" stroke="#00000022" stroke-width="0.6"/><text x="50" y="109.5" font-family="'Segoe UI', -apple-system, 'Helvetica Neue', Arial, sans-serif" font-size="12" font-weight="600" fill="#1f2328">ZooKeeper</text><rect x="135.3" y="92" width="59.1" height="26" rx="13" fill="#ffffff" stroke="#14b8a6" stroke-opacity="0.35"/><circle cx="150.3" cy="105" r="5" fill="#3b82f6" stroke="#00000022" stroke-width="0.6"/><text x="161.3" y="109.5" font-family="'Segoe UI', -apple-system, 'Helvetica Neue', Arial, sans-serif" font-size="12" font-weight="600" fill="#1f2328">ETL</text><rect x="200.39999999999998" y="92" width="159.2" height="26" rx="13" fill="#ffffff" stroke="#14b8a6" stroke-opacity="0.35"/><circle cx="215.39999999999998" cy="105" r="5" fill="#3b82f6" stroke="#00000022" stroke-width="0.6"/><text x="226.39999999999998" y="109.5" font-family="'Segoe UI', -apple-system, 'Helvetica Neue', Arial, sans-serif" font-size="12" font-weight="600" fill="#1f2328">Data Warehousing</text><rect x="24" y="124" width="190.0" height="26" rx="13" fill="#ffffff" stroke="#14b8a6" stroke-opacity="0.35"/><circle cx="39" cy="137" r="5" fill="#3b82f6" stroke="#00000022" stroke-width="0.6"/><text x="50" y="141.5" font-family="'Segoe UI', -apple-system, 'Helvetica Neue', Arial, sans-serif" font-size="12" font-weight="600" fill="#1f2328">Dimensional Modeling</text></svg>