<svg xmlns="http://www.w3.org/2000/svg" viewBox="0 0 480 144" width="100%">
<rect x="1" y="1" width="478" height="142" rx="16" fill="#FFF8EC" stroke="#E0A458" stroke-opacity=".55" stroke-width="1.5"/>
<rect x="1" y="1" width="478" height="8" rx="4" fill="#E0A458"/>
<circle cx="34" cy="38" r="5" fill="#E0A458"/><text x="48" y="44" font-family="'Segoe UI',Helvetica,Arial,sans-serif" font-size="17" font-weight="600" fill="#1F2A5C">Data &amp; Big Data</text><rect x="28" y="66" width="66" height="24" rx="12" fill="#E0A458" opacity=".2"/><text x="61" y="82" text-anchor="middle" font-family="'Segoe UI',Helvetica,Arial,sans-serif" font-size="12" fill="#1F2A5C">Hadoop</text><rect x="102" y="66" width="51" height="24" rx="12" fill="#E0A458" opacity=".2"/><text x="127" y="82" text-anchor="middle" font-family="'Segoe UI',Helvetica,Arial,sans-serif" font-size="12" fill="#1F2A5C">Hive</text><rect x="161" y="66" width="51" height="24" rx="12" fill="#E0A458" opacity=".2"/><text x="187" y="82" text-anchor="middle" font-family="'Segoe UI',Helvetica,Arial,sans-serif" font-size="12" fill="#1F2A5C">HDFS</text><rect x="220" y="66" width="51" height="24" rx="12" fill="#E0A458" opacity=".2"/><text x="246" y="82" text-anchor="middle" font-family="'Segoe UI',Helvetica,Arial,sans-serif" font-size="12" fill="#1F2A5C">YARN</text><rect x="279" y="66" width="88" height="24" rx="12" fill="#E0A458" opacity=".2"/><text x="323" y="82" text-anchor="middle" font-family="'Segoe UI',Helvetica,Arial,sans-serif" font-size="12" fill="#1F2A5C">ZooKeeper</text><rect x="375" y="66" width="44" height="24" rx="12" fill="#E0A458" opacity=".2"/><text x="397" y="82" text-anchor="middle" font-family="'Segoe UI',Helvetica,Arial,sans-serif" font-size="12" fill="#1F2A5C">ETL</text><rect x="28" y="98" width="139" height="24" rx="12" fill="#E0A458" opacity=".2"/><text x="97" y="114" text-anchor="middle" font-family="'Segoe UI',Helvetica,Arial,sans-serif" font-size="12" fill="#1F2A5C">Data Warehousing</text><rect x="175" y="98" width="168" height="24" rx="12" fill="#E0A458" opacity=".2"/><text x="259" y="114" text-anchor="middle" font-family="'Segoe UI',Helvetica,Arial,sans-serif" font-size="12" fill="#1F2A5C">Dimensional Modeling</text></svg>