<svg xmlns="http://www.w3.org/2000/svg" viewBox="0 0 440 204" width="100%">
<rect x="1" y="1" width="438" height="202" rx="12" fill="#FFFFFF" stroke="#DCE1EB" stroke-width="2"/>
<rect x="1" y="1" width="6" height="202" rx="3" fill="#1B2A5E"/><clipPath id="k"><rect x="1" y="1" width="438" height="202" rx="12"/></clipPath><rect x="0" y="1" width="140" height="3" fill="#D9962B" clip-path="url(#k)"><animate attributeName="x" values="-140;440" dur="4.5s" begin="0.5s" repeatCount="indefinite"/></rect>
<rect x="30" y="30" width="9" height="9" rx="2" fill="#D9962B"/><text x="48" y="41" font-family="'Segoe UI',Helvetica,Arial,sans-serif" font-size="21" font-weight="700" fill="#1B2A5E">Data &amp; Big Data</text><rect x="30" y="64" width="74" height="32" rx="8" fill="#EEF1F7"/><text x="67" y="85" text-anchor="middle" font-family="'Segoe UI',Helvetica,Arial,sans-serif" font-size="15" font-weight="500" fill="#1B2A5E">Hadoop</text><rect x="112" y="64" width="58" height="32" rx="8" fill="#EEF1F7"/><text x="141" y="85" text-anchor="middle" font-family="'Segoe UI',Helvetica,Arial,sans-serif" font-size="15" font-weight="500" fill="#1B2A5E">Hive</text><rect x="178" y="64" width="58" height="32" rx="8" fill="#EEF1F7"/><text x="207" y="85" text-anchor="middle" font-family="'Segoe UI',Helvetica,Arial,sans-serif" font-size="15" font-weight="500" fill="#1B2A5E">HDFS</text><rect x="244" y="64" width="58" height="32" rx="8" fill="#EEF1F7"/><text x="273" y="85" text-anchor="middle" font-family="'Segoe UI',Helvetica,Arial,sans-serif" font-size="15" font-weight="500" fill="#1B2A5E">YARN</text><rect x="310" y="64" width="98" height="32" rx="8" fill="#EEF1F7"/><text x="359" y="85" text-anchor="middle" font-family="'Segoe UI',Helvetica,Arial,sans-serif" font-size="15" font-weight="500" fill="#1B2A5E">ZooKeeper</text><rect x="30" y="104" width="50" height="32" rx="8" fill="#EEF1F7"/><text x="55" y="125" text-anchor="middle" font-family="'Segoe UI',Helvetica,Arial,sans-serif" font-size="15" font-weight="500" fill="#1B2A5E">ETL</text><rect x="88" y="104" width="154" height="32" rx="8" fill="#EEF1F7"/><text x="165" y="125" text-anchor="middle" font-family="'Segoe UI',Helvetica,Arial,sans-serif" font-size="15" font-weight="500" fill="#1B2A5E">Data Warehousing</text><rect x="30" y="144" width="186" height="32" rx="8" fill="#EEF1F7"/><text x="123" y="165" text-anchor="middle" font-family="'Segoe UI',Helvetica,Arial,sans-serif" font-size="15" font-weight="500" fill="#1B2A5E">Dimensional Modeling</text></svg>