<svg xmlns="http://www.w3.org/2000/svg" viewBox="0 0 420 140" width="420" height="140" role="img" aria-label="Full-Stack: Angular, React, NestJS, Spring Boot, ASP.NET, Flutter"><defs><linearGradient id="g" x1="0" y1="0" x2="1" y2="1"><stop offset="0" stop-color="#ffffff"/><stop offset="1" stop-color="#fff0f7"/></linearGradient><clipPath id="c"><rect x="1" y="1" width="414" height="134" rx="14"/></clipPath><pattern id="dp" width="12" height="12" patternUnits="userSpaceOnUse"><circle cx="2" cy="2" r="1.4" fill="#ec4899"/></pattern></defs><rect x="4" y="5" width="414" height="134" rx="14" fill="#dfe5ee"/><rect x="1" y="1" width="414" height="134" rx="14" fill="url(#g)" stroke="#d0d7de" stroke-width="1.5"/><g clip-path="url(#c)"><rect x="290" y="70" width="130" height="70" fill="url(#dp)" opacity="0.18"/><rect x="1" y="14" width="5" height="106" rx="2.5" fill="#ec4899"/><rect x="20" y="1" width="110" height="3.5" rx="1.75" fill="#ec4899"><animate attributeName="x" values="20;285;20" dur="7s" repeatCount="indefinite"/></rect></g><text x="24" y="40" font-family="'Segoe UI', -apple-system, 'Helvetica Neue', Arial, sans-serif" font-size="17" font-weight="700" fill="#1f2328">Full-Stack</text><circle cx="378" cy="34" r="13" fill="#ec4899" opacity="0.14"/><text x="378" y="39" text-anchor="middle" font-family="'Segoe UI', -apple-system, 'Helvetica Neue', Arial, sans-serif" font-size="13" font-weight="700" fill="#ec4899">6</text><rect x="24" y="60" width="89.9" height="26" rx="13" fill="#ffffff" stroke="#ec4899" stroke-opacity="0.35"/><circle cx="39" cy="73" r="5" fill="#DD0031" stroke="#00000022" stroke-width="0.6"/><text x="50" y="77.5" font-family="'Segoe UI', -apple-system, 'Helvetica Neue', Arial, sans-serif" font-size="12" font-weight="600" fill="#1f2328">Angular</text><rect x="119.9" y="60" width="74.5" height="26" rx="13" fill="#ffffff" stroke="#ec4899" stroke-opacity="0.35"/><circle cx="134.9" cy="73" r="5" fill="#61DAFB" stroke="#00000022" stroke-width="0.6"/><text x="145.9" y="77.5" font-family="'Segoe UI', -apple-system, 'Helvetica Neue', Arial, sans-serif" font-size="12" font-weight="600" fill="#1f2328">React</text><rect x="200.4" y="60" width="82.2" height="26" rx="13" fill="#ffffff" stroke="#ec4899" stroke-opacity="0.35"/><circle cx="215.4" cy="73" r="5" fill="#E0234E" stroke="#00000022" stroke-width="0.6"/><text x="226.4" y="77.5" font-family="'Segoe UI', -apple-system, 'Helvetica Neue', Arial, sans-serif" font-size="12" font-weight="600" fill="#1f2328">NestJS</text><rect x="24" y="92" width="120.7" height="26" rx="13" fill="#ffffff" stroke="#ec4899" stroke-opacity="0.35"/><circle cx="39" cy="105" r="5" fill="#6DB33F" stroke="#00000022" stroke-width="0.6"/><text x="50" y="109.5" font-family="'Segoe UI', -apple-system, 'Helvetica Neue', Arial, sans-serif" font-size="12" font-weight="600" fill="#1f2328">Spring Boot</text><rect x="150.7" y="92" width="89.9" height="26" rx="13" fill="#ffffff" stroke="#ec4899" stroke-opacity="0.35"/><circle cx="165.7" cy="105" r="5" fill="#512BD4" stroke="#00000022" stroke-width="0.6"/><text x="176.7" y="109.5" font-family="'Segoe UI', -apple-system, 'Helvetica Neue', Arial, sans-serif" font-size="12" font-weight="600" fill="#1f2328">ASP.NET</text><rect x="246.60000000000002" y="92" width="89.9" height="26" rx="13" fill="#ffffff" stroke="#ec4899" stroke-opacity="0.35"/><circle cx="261.6" cy="105" r="5" fill="#02569B" stroke="#00000022" stroke-width="0.6"/><text x="272.6" y="109.5" font-family="'Segoe UI', -apple-system, 'Helvetica Neue', Arial, sans-serif" font-size="12" font-weight="600" fill="#1f2328">Flutter</text></svg>